<svg id="Layer_1" data-name="Layer 1" xmlns="http://www.w3.org/2000/svg" xmlns:xlink="http://www.w3.org/1999/xlink" viewBox="0 0 162 38"><defs><style>.cls-1{fill:url(#linear-gradient);}.cls-2{fill:url(#linear-gradient-2);}.cls-3{fill:url(#linear-gradient-3);}.cls-4{fill:url(#linear-gradient-4);}.cls-5{fill:#505c67;}</style><linearGradient id="linear-gradient" x1="22.904" y1="-19.552" x2="36.273" y2="-6.183" gradientTransform="translate(0 21)" gradientUnits="userSpaceOnUse"><stop offset="0" stop-color="#fd6f2d"/><stop offset="1" stop-color="#f83a5e"/></linearGradient><linearGradient id="linear-gradient-2" x1="-0.039" y1="-20.961" x2="16.085" y2="-4.836" xlink:href="#linear-gradient"/><linearGradient id="linear-gradient-3" x1="21.544" y1="0.836" x2="37.667" y2="16.961" xlink:href="#linear-gradient"/><linearGradient id="linear-gradient-4" x1="1.361" y1="2.188" x2="14.729" y2="15.558" xlink:href="#linear-gradient"/></defs><title>logo</title><path class="cls-1" d="M37.628,9.5V0H28.221a9.5,9.5,0,1,0,9.407,9.54V9.5Z" transform="translate(0 0)"/><path class="cls-2" d="M18.814,9.5A9.454,9.454,0,0,0,9.408,0H0V9.5A9.407,9.407,0,1,0,18.814,9.5Z" transform="translate(0 0)"/><path class="cls-3" d="M18.814,28.5A9.454,9.454,0,0,0,28.221,38h9.407V28.5a9.407,9.407,0,1,0-18.813,0h0Z" transform="translate(0 0)"/><path class="cls-4" d="M0,28.5V38H9.407A9.5,9.5,0,1,0,0,28.46V28.5Z" transform="translate(0 0)"/><path class="cls-5" d="M56.333,15.433V33.824H50.787V5.125h4.3L69.959,23.962V5.166h5.547V33.824H71Z" transform="translate(0 0)"/><path class="cls-5" d="M86.478,34.229a7.97,7.97,0,0,1-2.854-.5,6.846,6.846,0,0,1-2.291-1.415,6.565,6.565,0,0,1-1.507-2.122,6.453,6.453,0,0,1-.543-2.668,5.894,5.894,0,0,1,.663-2.769A6.329,6.329,0,0,1,81.8,22.587a9.173,9.173,0,0,1,2.834-1.395,12.324,12.324,0,0,1,3.617-.5A15.553,15.553,0,0,1,91,20.93a11.239,11.239,0,0,1,2.392.688V20.4a4.26,4.26,0,0,0-1.186-3.233,4.914,4.914,0,0,0-3.517-1.132,9.267,9.267,0,0,0-3.3.606,15.263,15.263,0,0,0-3.3,1.778l-1.648-3.436a15.491,15.491,0,0,1,8.762-2.708q4.542,0,7.055,2.244a8.245,8.245,0,0,1,2.511,6.487V27.6a1.914,1.914,0,0,0,.3,1.213,1.315,1.315,0,0,0,.985.4v4.608a11.945,11.945,0,0,1-2.371.283,3.574,3.574,0,0,1-2.351-.687A2.957,2.957,0,0,1,94.316,31.6L94.2,30.429a9.341,9.341,0,0,1-3.416,2.83A9.772,9.772,0,0,1,86.478,34.229Zm1.527-3.961a6.987,6.987,0,0,0,2.592-.485,4.69,4.69,0,0,0,1.909-1.294,1.948,1.948,0,0,0,.885-1.535V24.527a13.2,13.2,0,0,0-2.09-.586,11.261,11.261,0,0,0-2.17-.223,5.734,5.734,0,0,0-3.417.95,2.858,2.858,0,0,0-1.326,2.405,2.9,2.9,0,0,0,1.046,2.283A3.778,3.778,0,0,0,88.006,30.268Z" transform="translate(0 0)"/><path class="cls-5" d="M136.518,33.824h-5.385V21.94a6.335,6.335,0,0,0-.864-3.719,2.808,2.808,0,0,0-2.392-1.172,4.5,4.5,0,0,0-3.014,1.233,6.8,6.8,0,0,0-2.01,3.214V33.824h-5.385V21.94a6.335,6.335,0,0,0-.864-3.719,2.807,2.807,0,0,0-2.392-1.172,4.568,4.568,0,0,0-2.994,1.213,6.6,6.6,0,0,0-2.03,3.193V33.824H103.8V12.644h4.863v3.921a8.059,8.059,0,0,1,3.2-3.173A9.5,9.5,0,0,1,116.5,12.28a5.946,5.946,0,0,1,4.1,1.293,5.786,5.786,0,0,1,1.849,3.193,9.13,9.13,0,0,1,3.256-3.335,8.752,8.752,0,0,1,4.5-1.152,6.234,6.234,0,0,1,3.175.728,5.243,5.243,0,0,1,1.929,1.9,7.994,7.994,0,0,1,.945,2.668,17.62,17.62,0,0,1,.261,3.031V33.824Z" transform="translate(0 0)"/><path class="cls-5" d="M150.987,34.229a11.636,11.636,0,0,1-4.582-.869,10.36,10.36,0,0,1-5.727-5.841,11.212,11.212,0,0,1-.784-4.163,11.865,11.865,0,0,1,.763-4.265,10.415,10.415,0,0,1,2.211-3.517,10.544,10.544,0,0,1,3.517-2.405,11.652,11.652,0,0,1,4.642-.889,11.374,11.374,0,0,1,4.6.889,10.6,10.6,0,0,1,3.456,2.385,10.166,10.166,0,0,1,2.17,3.477A11.622,11.622,0,0,1,162,23.153c0,0.351-.007.687-0.02,1.011a4.151,4.151,0,0,1-.1.808H145.6a6.318,6.318,0,0,0,.6,2.224,5.5,5.5,0,0,0,1.246,1.657,5.417,5.417,0,0,0,1.728,1.051,5.659,5.659,0,0,0,2.01.364,6.175,6.175,0,0,0,3.035-.789,4.164,4.164,0,0,0,1.949-2.081l4.622,1.293a9.423,9.423,0,0,1-3.717,3.981A11.47,11.47,0,0,1,150.987,34.229Zm5.466-12.773a5.644,5.644,0,0,0-1.748-3.819,5.465,5.465,0,0,0-7.456.02,5.554,5.554,0,0,0-1.187,1.657,5.875,5.875,0,0,0-.542,2.143h10.932Z" transform="translate(0 0)"/></svg>